<svg xmlns="http://www.w3.org/2000/svg" viewBox="72 38 344 344" width="344" height="344" role="img" aria-labelledby="dollyLogoTitle">
  <title id="dollyLogoTitle">Dolly — duas ovelhas de linha ligadas por uma dupla hélice de DNA, simbolizando clonagem</title>

  <g fill="none" stroke-linecap="round" stroke-linejoin="round">

    <!-- DNA dupla hélice -->
    <g stroke-width="7">
      <path d="M 375.00,55.00 C 376.34,55.71 380.49,57.83 383.03,59.25 C 385.58,60.67 388.12,62.08 390.28,63.50 C 392.45,64.92 394.46,66.33 396.03,67.75 C 397.61,69.17 398.90,70.58 399.73,72.00 C 400.56,73.42 401.00,74.83 401.00,76.25 C 401.00,77.67 400.56,79.08 399.73,80.50 C 398.90,81.92 397.61,83.33 396.03,84.75 C 394.46,86.17 392.45,87.58 390.28,89.00 C 388.12,90.42 385.58,91.83 383.03,93.25 C 380.49,94.67 377.68,96.08 375.00,97.50 C 372.32,98.92 369.51,100.33 366.97,101.75 C 364.42,103.17 361.88,104.58 359.72,106.00 C 357.55,107.42 355.54,108.83 353.97,110.25 C 352.39,111.67 351.10,113.08 350.27,114.50 C 349.44,115.92 349.00,117.33 349.00,118.75 C 349.00,120.17 349.44,121.58 350.27,123.00 C 351.10,124.42 352.39,125.83 353.97,127.25 C 355.54,128.67 357.55,130.08 359.72,131.50 C 361.88,132.92 364.42,134.33 366.97,135.75 C 369.51,137.17 372.32,138.58 375.00,140.00 C 377.68,141.42 380.49,142.83 383.03,144.25 C 385.58,145.67 388.12,147.08 390.28,148.50 C 392.45,149.92 394.46,151.33 396.03,152.75 C 397.61,154.17 398.90,155.58 399.73,157.00 C 400.56,158.42 401.00,159.83 401.00,161.25 C 401.00,162.67 400.56,164.08 399.73,165.50 C 398.90,166.92 397.61,168.33 396.03,169.75 C 394.46,171.17 392.45,172.58 390.28,174.00 C 388.12,175.42 385.58,176.83 383.03,178.25 C 380.49,179.67 377.68,181.08 375.00,182.50 C 372.32,183.92 369.51,185.33 366.97,186.75 C 364.42,188.17 361.88,189.58 359.72,191.00 C 357.55,192.42 355.54,193.83 353.97,195.25 C 352.39,196.67 351.10,198.08 350.27,199.50 C 349.44,200.92 349.00,202.33 349.00,203.75 C 349.00,205.17 349.44,206.58 350.27,208.00 C 351.10,209.42 352.39,210.83 353.97,212.25 C 355.54,213.67 357.55,215.08 359.72,216.50 C 361.88,217.92 364.42,219.33 366.97,220.75 C 369.51,222.17 373.66,224.29 375.00,225.00 " stroke="#2f6fed"/>
      <path d="M 375.00,55.00 C 373.66,55.71 369.51,57.83 366.97,59.25 C 364.42,60.67 361.88,62.08 359.72,63.50 C 357.55,64.92 355.54,66.33 353.97,67.75 C 352.39,69.17 351.10,70.58 350.27,72.00 C 349.44,73.42 349.00,74.83 349.00,76.25 C 349.00,77.67 349.44,79.08 350.27,80.50 C 351.10,81.92 352.39,83.33 353.97,84.75 C 355.54,86.17 357.55,87.58 359.72,89.00 C 361.88,90.42 364.42,91.83 366.97,93.25 C 369.51,94.67 372.32,96.08 375.00,97.50 C 377.68,98.92 380.49,100.33 383.03,101.75 C 385.58,103.17 388.12,104.58 390.28,106.00 C 392.45,107.42 394.46,108.83 396.03,110.25 C 397.61,111.67 398.90,113.08 399.73,114.50 C 400.56,115.92 401.00,117.33 401.00,118.75 C 401.00,120.17 400.56,121.58 399.73,123.00 C 398.90,124.42 397.61,125.83 396.03,127.25 C 394.46,128.67 392.45,130.08 390.28,131.50 C 388.12,132.92 385.58,134.33 383.03,135.75 C 380.49,137.17 377.68,138.58 375.00,140.00 C 372.32,141.42 369.51,142.83 366.97,144.25 C 364.42,145.67 361.88,147.08 359.72,148.50 C 357.55,149.92 355.54,151.33 353.97,152.75 C 352.39,154.17 351.10,155.58 350.27,157.00 C 349.44,158.42 349.00,159.83 349.00,161.25 C 349.00,162.67 349.44,164.08 350.27,165.50 C 351.10,166.92 352.39,168.33 353.97,169.75 C 355.54,171.17 357.55,172.58 359.72,174.00 C 361.88,175.42 364.42,176.83 366.97,178.25 C 369.51,179.67 372.32,181.08 375.00,182.50 C 377.68,183.92 380.49,185.33 383.03,186.75 C 385.58,188.17 388.12,189.58 390.28,191.00 C 392.45,192.42 394.46,193.83 396.03,195.25 C 397.61,196.67 398.90,198.08 399.73,199.50 C 400.56,200.92 401.00,202.33 401.00,203.75 C 401.00,205.17 400.56,206.58 399.73,208.00 C 398.90,209.42 397.61,210.83 396.03,212.25 C 394.46,213.67 392.45,215.08 390.28,216.50 C 388.12,217.92 385.58,219.33 383.03,220.75 C 380.49,222.17 376.34,224.29 375.00,225.00 " stroke="#e0459c"/>
      <line x1="399.73" y1="72.00" x2="350.27" y2="72.00" stroke="#697086" stroke-width="6"/><line x1="350.27" y1="114.50" x2="399.73" y2="114.50" stroke="#697086" stroke-width="6"/><line x1="399.73" y1="157.00" x2="350.27" y2="157.00" stroke="#697086" stroke-width="6"/><line x1="350.27" y1="199.50" x2="399.73" y2="199.50" stroke="#697086" stroke-width="6"/>
    </g>

    <!-- seta DNA -> clone -->
    <path d="M 393,228 C 393,255 384,268 358,278" stroke="#697086" stroke-width="7"/>
    <path d="M 366,266 L 357,279 L 372,285" stroke="#697086" stroke-width="7"/>

    <!-- seta ovelha original -> clone -->
    <path d="M 148,298 C 148,333 172,350 222,350" stroke="#697086" stroke-width="7"/>
    <path d="M 207,338 L 223,350 L 208,361" stroke="#697086" stroke-width="7"/>

    <!-- orelha ovelha 2 (atrás da lã) -->
    <path d="M 333.00,257.00 C 322.00,245.67 325.30,223.00 333.00,223.00 C 340.70,223.00 344.00,245.67 333.00,257.00 Z" transform="rotate(18 333 240)" stroke="#e0459c" stroke-width="7"/>

    <!-- ovelha 2 (clone, menor, rosa) -->
    <path d="M 359.15,321.59 C 357.99,322.73 356.83,323.80 355.82,324.91 C 354.80,326.03 353.87,327.11 353.06,328.28 C 352.25,329.44 351.57,330.63 350.97,331.92 C 350.37,333.20 349.90,334.56 349.45,336.00 C 349.00,337.44 348.65,338.98 348.25,340.56 C 347.84,342.14 347.48,343.82 347.01,345.48 C 346.53,347.13 346.03,348.87 345.38,350.49 C 344.72,352.12 343.98,353.76 343.07,355.23 C 342.16,356.70 341.11,358.12 339.92,359.31 C 338.74,360.50 337.38,361.56 335.94,362.39 C 334.50,363.21 332.90,363.84 331.27,364.26 C 329.64,364.69 327.89,364.87 326.16,364.92 C 324.43,364.96 322.63,364.77 320.90,364.52 C 319.16,364.27 317.42,363.83 315.75,363.41 C 314.08,363.00 312.45,362.46 310.88,362.02 C 309.31,361.59 307.81,361.12 306.33,360.80 C 304.86,360.47 303.46,360.21 302.04,360.09 C 300.63,359.97 299.26,359.98 297.85,360.10 C 296.43,360.22 295.02,360.50 293.55,360.82 C 292.07,361.15 290.57,361.62 289.00,362.06 C 287.43,362.50 285.79,363.03 284.12,363.45 C 282.44,363.86 280.70,364.30 278.96,364.54 C 277.23,364.79 275.43,364.97 273.70,364.92 C 271.97,364.86 270.23,364.66 268.60,364.23 C 266.97,363.80 265.38,363.16 263.94,362.32 C 262.51,361.48 261.16,360.41 259.98,359.21 C 258.80,358.01 257.76,356.59 256.86,355.11 C 255.96,353.64 255.22,351.99 254.57,350.36 C 253.92,348.73 253.43,347.00 252.96,345.34 C 252.48,343.69 252.13,342.01 251.72,340.43 C 251.32,338.85 250.97,337.32 250.51,335.88 C 250.06,334.45 249.59,333.10 248.98,331.81 C 248.38,330.53 247.69,329.35 246.87,328.18 C 246.06,327.02 245.12,325.94 244.10,324.83 C 243.08,323.71 241.92,322.64 240.75,321.50 C 239.59,320.36 238.31,319.21 237.11,317.97 C 235.92,316.73 234.66,315.43 233.58,314.05 C 232.50,312.67 231.45,311.20 230.63,309.68 C 229.81,308.16 229.11,306.55 228.67,304.92 C 228.24,303.30 227.99,301.59 228.00,299.93 C 228.01,298.27 228.26,296.57 228.71,294.95 C 229.16,293.33 229.87,291.71 230.70,290.19 C 231.53,288.68 232.59,287.21 233.67,285.84 C 234.76,284.46 236.01,283.17 237.21,281.93 C 238.40,280.69 239.68,279.55 240.85,278.41 C 242.01,277.27 243.17,276.20 244.18,275.09 C 245.20,273.97 246.13,272.89 246.94,271.72 C 247.75,270.56 248.43,269.37 249.03,268.08 C 249.63,266.80 250.10,265.44 250.55,264.00 C 251.00,262.56 251.35,261.02 251.75,259.44 C 252.16,257.86 252.52,256.18 252.99,254.52 C 253.47,252.87 253.97,251.13 254.62,249.51 C 255.28,247.88 256.02,246.24 256.93,244.77 C 257.84,243.30 258.89,241.88 260.08,240.69 C 261.26,239.50 262.62,238.44 264.06,237.61 C 265.50,236.79 267.10,236.16 268.73,235.74 C 270.36,235.31 272.11,235.13 273.84,235.08 C 275.57,235.04 277.37,235.23 279.10,235.48 C 280.84,235.73 282.58,236.17 284.25,236.59 C 285.92,237.00 287.55,237.54 289.12,237.98 C 290.69,238.41 292.19,238.88 293.67,239.20 C 295.14,239.53 296.54,239.79 297.96,239.91 C 299.37,240.03 300.74,240.02 302.15,239.90 C 303.57,239.78 304.98,239.50 306.45,239.18 C 307.93,238.85 309.43,238.38 311.00,237.94 C 312.57,237.50 314.21,236.97 315.88,236.55 C 317.56,236.14 319.30,235.70 321.04,235.46 C 322.77,235.21 324.57,235.03 326.30,235.08 C 328.03,235.14 329.77,235.34 331.40,235.77 C 333.03,236.20 334.62,236.84 336.06,237.68 C 337.49,238.52 338.84,239.59 340.02,240.79 C 341.20,241.99 342.24,243.41 343.14,244.89 C 344.04,246.36 344.78,248.01 345.43,249.64 C 346.08,251.27 346.57,253.00 347.04,254.66 C 347.52,256.31 347.87,257.99 348.28,259.57 C 348.68,261.15 349.03,262.68 349.49,264.12 C 349.94,265.55 350.41,266.90 351.02,268.19 C 351.62,269.47 352.31,270.65 353.13,271.82 C 353.94,272.98 354.88,274.06 355.90,275.17 C 356.92,276.29 358.08,277.36 359.25,278.50 C 360.41,279.64 361.69,280.79 362.89,282.03 C 364.08,283.27 365.34,284.57 366.42,285.95 C 367.50,287.33 368.55,288.80 369.37,290.32 C 370.19,291.84 370.89,293.45 371.33,295.08 C 371.76,296.70 372.01,298.41 372.00,300.07 C 371.99,301.73 371.74,303.43 371.29,305.05 C 370.84,306.67 370.13,308.29 369.30,309.81 C 368.47,311.32 367.41,312.79 366.33,314.16 C 365.24,315.54 363.99,316.83 362.79,318.07 C 361.60,319.31 360.32,320.45 359.15,321.59 Z" stroke="#e0459c" stroke-width="8"/>
    <circle cx="278" cy="298" r="7" fill="#e0459c"/>
    <circle cx="322" cy="298" r="7" fill="#e0459c"/>
    <path d="M 292,318 Q 300,326 308,318" stroke="#e0459c" stroke-width="6"/>

    <!-- orelha ovelha 1 (atrás da lã) -->
    <path d="M 222.00,145.00 C 207.00,129.67 211.50,99.00 222.00,99.00 C 232.50,99.00 237.00,129.67 222.00,145.00 Z" transform="rotate(18 222 122)" stroke="#2f6fed" stroke-width="7"/>

    <!-- ovelha 1 (original, maior, azul) -->
    <path d="M 283.00,205.00 C 283.00,207.26 282.67,209.58 282.07,211.79 C 281.48,214.00 280.53,216.20 279.43,218.27 C 278.32,220.34 276.90,222.34 275.45,224.23 C 274.00,226.11 272.32,227.88 270.71,229.58 C 269.10,231.27 267.38,232.85 265.81,234.41 C 264.25,235.98 262.68,237.45 261.31,238.97 C 259.93,240.50 258.66,241.98 257.56,243.58 C 256.45,245.17 255.52,246.79 254.69,248.55 C 253.86,250.30 253.21,252.14 252.58,254.10 C 251.94,256.05 251.45,258.14 250.88,260.28 C 250.31,262.42 249.81,264.70 249.14,266.94 C 248.47,269.18 247.78,271.52 246.88,273.72 C 245.97,275.92 244.95,278.15 243.71,280.14 C 242.46,282.13 241.03,284.05 239.41,285.67 C 237.80,287.29 235.96,288.74 234.00,289.87 C 232.04,291.00 229.87,291.87 227.66,292.46 C 225.44,293.05 223.07,293.33 220.72,293.41 C 218.37,293.49 215.93,293.26 213.58,292.95 C 211.22,292.63 208.84,292.06 206.57,291.52 C 204.30,290.97 202.07,290.27 199.93,289.69 C 197.79,289.12 195.74,288.50 193.73,288.07 C 191.72,287.64 189.80,287.28 187.87,287.12 C 185.93,286.97 184.07,286.97 182.13,287.12 C 180.20,287.28 178.28,287.64 176.27,288.07 C 174.26,288.50 172.21,289.12 170.07,289.69 C 167.93,290.27 165.70,290.97 163.43,291.52 C 161.16,292.06 158.78,292.63 156.42,292.95 C 154.07,293.26 151.63,293.49 149.28,293.41 C 146.93,293.33 144.56,293.05 142.34,292.46 C 140.13,291.87 137.96,291.00 136.00,289.87 C 134.04,288.74 132.20,287.29 130.59,285.67 C 128.97,284.05 127.54,282.13 126.29,280.14 C 125.05,278.15 124.03,275.92 123.12,273.72 C 122.22,271.52 121.53,269.18 120.86,266.94 C 120.19,264.70 119.69,262.42 119.12,260.28 C 118.55,258.14 118.06,256.05 117.42,254.10 C 116.79,252.14 116.14,250.30 115.31,248.55 C 114.48,246.79 113.55,245.17 112.44,243.58 C 111.34,241.98 110.07,240.50 108.69,238.97 C 107.32,237.45 105.75,235.98 104.19,234.41 C 102.62,232.85 100.90,231.27 99.29,229.58 C 97.68,227.88 96.00,226.11 94.55,224.23 C 93.10,222.34 91.68,220.34 90.57,218.27 C 89.47,216.20 88.52,214.00 87.93,211.79 C 87.33,209.58 87.00,207.26 87.00,205.00 C 87.00,202.74 87.33,200.42 87.93,198.21 C 88.52,196.00 89.47,193.80 90.57,191.73 C 91.68,189.66 93.10,187.66 94.55,185.77 C 96.00,183.89 97.68,182.12 99.29,180.42 C 100.90,178.73 102.62,177.15 104.19,175.59 C 105.75,174.02 107.32,172.55 108.69,171.03 C 110.07,169.50 111.34,168.02 112.44,166.42 C 113.55,164.83 114.48,163.21 115.31,161.45 C 116.14,159.70 116.79,157.86 117.42,155.90 C 118.06,153.95 118.55,151.86 119.12,149.72 C 119.69,147.58 120.19,145.30 120.86,143.06 C 121.53,140.82 122.22,138.48 123.12,136.28 C 124.03,134.08 125.05,131.85 126.29,129.86 C 127.54,127.87 128.97,125.95 130.59,124.33 C 132.20,122.71 134.04,121.26 136.00,120.13 C 137.96,119.00 140.13,118.13 142.34,117.54 C 144.56,116.95 146.93,116.67 149.28,116.59 C 151.63,116.51 154.07,116.74 156.42,117.05 C 158.78,117.37 161.16,117.94 163.43,118.48 C 165.70,119.03 167.93,119.73 170.07,120.31 C 172.21,120.88 174.26,121.50 176.27,121.93 C 178.28,122.36 180.20,122.72 182.13,122.88 C 184.07,123.03 185.93,123.03 187.87,122.88 C 189.80,122.72 191.72,122.36 193.73,121.93 C 195.74,121.50 197.79,120.88 199.93,120.31 C 202.07,119.73 204.30,119.03 206.57,118.48 C 208.84,117.94 211.22,117.37 213.58,117.05 C 215.93,116.74 218.37,116.51 220.72,116.59 C 223.07,116.67 225.44,116.95 227.66,117.54 C 229.87,118.13 232.04,119.00 234.00,120.13 C 235.96,121.26 237.80,122.71 239.41,124.33 C 241.03,125.95 242.46,127.87 243.71,129.86 C 244.95,131.85 245.97,134.08 246.88,136.28 C 247.78,138.48 248.47,140.82 249.14,143.06 C 249.81,145.30 250.31,147.58 250.88,149.72 C 251.45,151.86 251.94,153.95 252.58,155.90 C 253.21,157.86 253.86,159.70 254.69,161.45 C 255.52,163.21 256.45,164.83 257.56,166.42 C 258.66,168.02 259.93,169.50 261.31,171.03 C 262.68,172.55 264.25,174.02 265.81,175.59 C 267.38,177.15 269.10,178.73 270.71,180.42 C 272.32,182.12 274.00,183.89 275.45,185.77 C 276.90,187.66 278.32,189.66 279.43,191.73 C 280.53,193.80 281.48,196.00 282.07,198.21 C 282.67,200.42 283.00,202.74 283.00,205.00 Z" stroke="#2f6fed" stroke-width="8"/>
    <circle cx="155" cy="203" r="8" fill="#2f6fed"/>
    <circle cx="207" cy="203" r="8" fill="#2f6fed"/>
    <path d="M 168,228 Q 181,238 194,228" stroke="#2f6fed" stroke-width="7"/>

  </g>
</svg>
